<?xml version="1.0" standalone="no"?><!DOCTYPE svg PUBLIC "-//W3C//DTD SVG 1.1//EN" "http://www.w3.org/Graphics/SVG/1.1/DTD/svg11.dtd"><svg t="1512117446582" class="icon" style="" viewBox="0 0 1024 1024" version="1.1" xmlns="http://www.w3.org/2000/svg" p-id="3963" xmlns:xlink="http://www.w3.org/1999/xlink" width="100" height="100"><defs><style type="text/css"></style></defs><path d="M1007.483871 957.935484l-303.896774-303.896774c132.129032-155.251613 125.522581-389.780645-23.122581-535.122581-155.251613-155.251613-406.296774-155.251613-561.548387 0-155.251613 155.251613-155.251613 406.296774 0 561.548387 145.341935 145.341935 379.870968 155.251613 535.122581 23.122581l303.896774 303.896774c13.212903 13.212903 33.032258 13.212903 46.245161 0C1020.696774 994.270968 1020.696774 971.148387 1007.483871 957.935484zM168.464516 630.916129C39.63871 502.090323 39.63871 293.987097 168.464516 165.16129 297.290323 36.335484 505.393548 36.335484 634.219355 165.16129c128.825806 128.825806 128.825806 336.929032 0 465.754839C505.393548 759.741935 297.290323 759.741935 168.464516 630.916129z" p-id="3964" fill="#999999"></path></svg>