<?xml version="1.0" standalone="no"?><!DOCTYPE svg PUBLIC "-//W3C//DTD SVG 1.1//EN" "http://www.w3.org/Graphics/SVG/1.1/DTD/svg11.dtd"><svg t="1497947560800" class="icon" style="" viewBox="0 0 1024 1024" version="1.1" xmlns="http://www.w3.org/2000/svg" p-id="3691" xmlns:xlink="http://www.w3.org/1999/xlink" width="100" height="100"><defs><style type="text/css"></style></defs><path d="M512.852414 619.447151c-14.128789 0-25.582655-11.453866-25.582655-25.582655l0-327.457983c0-14.128789 11.453866-25.582655 25.582655-25.582655s25.582655 11.453866 25.582655 25.582655l0 327.457983C538.435069 607.993285 526.980179 619.447151 512.852414 619.447151z" p-id="3692" fill="#ffffff"></path><path d="M512.852414 785.222755c-14.128789 0-25.582655-11.453866-25.582655-25.582655l0-2.046612c0-14.128789 11.453866-25.582655 25.582655-25.582655s25.582655 11.453866 25.582655 25.582655l0 2.046612C538.435069 773.768889 526.980179 785.222755 512.852414 785.222755z" p-id="3693" fill="#ffffff"></path><path d="M512.852414 946.905134c-58.700937 0-115.659183-11.501962-169.292708-34.187637-51.791573-21.904892-98.299817-53.260018-138.231271-93.192495s-71.287603-86.440721-93.193519-138.232295c-22.684652-53.633524-34.187637-110.591771-34.187637-169.292708 0-58.699913 11.501962-115.65816 34.187637-169.292708 21.905916-51.791573 53.261041-98.299817 93.193519-138.231271 39.932478-39.932478 86.440721-71.287603 138.231271-93.193519 53.633524-22.685675 110.591771-34.187637 169.292708-34.187637 58.699913 0 115.65816 11.501962 169.292708 34.187637 51.791573 21.905916 98.299817 53.260018 138.232295 93.193519 39.932478 39.932478 71.287603 86.440721 93.192495 138.231271 22.685675 53.633524 34.187637 110.591771 34.187637 169.292708 0 58.700937-11.501962 115.659183-34.187637 169.292708-21.904892 51.791573-53.260018 98.299817-93.192495 138.232295s-86.440721 71.287603-138.232295 93.192495C628.510574 935.403173 571.552328 946.905134 512.852414 946.905134zM512.852414 128.260176c-102.500489 0-198.866257 39.916105-271.344988 112.394836S129.11259 409.499511 129.11259 512c0 102.500489 39.916105 198.866257 112.394836 271.344988s168.844499 112.394836 271.344988 112.394836 198.866257-39.916105 271.344988-112.394836 112.394836-168.844499 112.394836-271.344988c0-102.500489-39.916105-198.866257-112.394836-271.344988S615.352903 128.260176 512.852414 128.260176z" p-id="3694" fill="#ffffff"></path></svg>